<svg width="1757" height="807" viewBox="0 0 1757 807" fill="none" xmlns="http://www.w3.org/2000/svg">
<path d="M8 604L233.6 44H345.6L571.2 604H449.6L289.6 204.8L128.8 604H8ZM602.906 44H1082.91V156H898.906V604H786.906V156H602.906V44Z" fill="black"/>
<path fill-rule="evenodd" clip-rule="evenodd" d="M1259 43.0732L1093 321.5L1259 599.927H1591L1757 321.5L1591 43.0732H1259ZM1425.5 459C1501.44 459 1563 397.44 1563 321.5C1563 245.561 1501.44 184 1425.5 184C1349.56 184 1288 245.561 1288 321.5C1288 397.44 1349.56 459 1425.5 459Z" fill="black"/>
</svg>
